<svg viewBox="0 0 35 35">
  <path d="M30.559,30.534H4.441A4.2,4.2,0,0,1,.25,26.343V8.657A4.2,4.2,0,0,1,4.441,4.466H30.559A4.2,4.2,0,0,1,34.75,8.657V26.343A4.2,4.2,0,0,1,30.559,30.534ZM4.441,6.966A1.693,1.693,0,0,0,2.75,8.657V26.343a1.692,1.692,0,0,0,1.691,1.691H30.559a1.693,1.693,0,0,0,1.691-1.691V8.657a1.693,1.693,0,0,0-1.691-1.691Z"/>
  <path d="M23.323,24.428H11.677a1.25,1.25,0,0,1,0-2.5H23.323a1.25,1.25,0,0,1,0,2.5Z"/>
  <path d="M9.966,13.162a1.251,1.251,0,0,0,0-2.5,1.251,1.251,0,0,0,0,2.5Z"/>
  <path d="M14.989,13.072a1.251,1.251,0,0,0,0-2.5,1.251,1.251,0,0,0,0,2.5Z"/>
  <path d="M20.011,13.072a1.251,1.251,0,0,0,0-2.5,1.251,1.251,0,0,0,0,2.5Z"/>
  <path d="M25.034,13.072a1.251,1.251,0,0,0,0-2.5,1.251,1.251,0,0,0,0,2.5Z"/>
  <path d="M7.455,18.646a1.251,1.251,0,0,0,0-2.5,1.251,1.251,0,0,0,0,2.5Z"/>
  <path d="M12.477,18.556a1.251,1.251,0,0,0,0-2.5,1.251,1.251,0,0,0,0,2.5Z"/>
  <path d="M17.5,18.556a1.251,1.251,0,0,0,0-2.5,1.251,1.251,0,0,0,0,2.5Z"/>
  <path d="M22.523,18.556a1.251,1.251,0,0,0,0-2.5,1.251,1.251,0,0,0,0,2.5Z"/>
  <path d="M27.545,18.556a1.251,1.251,0,0,0,0-2.5,1.251,1.251,0,0,0,0,2.5Z"/>
</svg>
